<?xml version="1.0" encoding="UTF-8"?>
<svg version="1.1" xmlns="http://www.w3.org/2000/svg" width="512" height="512">
<path d="M0 0 C168.96 0 337.92 0 512 0 C512 168.96 512 337.92 512 512 C343.04 512 174.08 512 0 512 C0 343.04 0 174.08 0 0 Z " fill="#FEFEFE" transform="translate(0,0)"/>
<path d="M0 0 C168.96 0 337.92 0 512 0 C512 168.96 512 337.92 512 512 C343.04 512 174.08 512 0 512 C0 343.04 0 174.08 0 0 Z M96 33 C94.43243328 33.45020067 94.43243328 33.45020067 92.83319855 33.90949631 C70.61239969 40.50157349 49.89254568 55.94861485 38 76 C37.64454102 76.5976416 37.28908203 77.1952832 36.92285156 77.81103516 C27.5263927 93.8590527 22.84954668 109.59845231 22.85282898 128.27461243 C22.84915229 129.40312077 22.8454756 130.53162912 22.8416875 131.69433469 C22.83068256 135.47241592 22.82681219 139.25046961 22.82299805 143.02856445 C22.81725956 145.73927544 22.81009615 148.44998235 22.80308533 151.16069031 C22.78336821 159.29289215 22.77325998 167.42509515 22.76435754 175.5573149 C22.75996616 179.39482581 22.7546015 183.23233536 22.74936867 187.0698452 C22.73235986 199.8406931 22.71786871 212.61154017 22.71061993 225.38239765 C22.70871029 228.69283868 22.70678992 232.0032797 22.70483398 235.3137207 C22.70435024 236.13643151 22.7038665 236.95914232 22.7033681 237.80678376 C22.69507903 251.11526624 22.66975957 264.42365851 22.63725331 277.73210166 C22.60409178 291.42138219 22.58616291 305.11061702 22.58297569 318.7999379 C22.5808188 326.47546531 22.57219157 334.15086122 22.54651451 341.82634926 C22.5246827 348.36719973 22.51681774 354.90788677 22.52648129 361.44876955 C22.53099058 364.77876437 22.52710531 368.10815268 22.50971985 371.43814468 C22.4160861 390.44832276 23.4835438 407.6595489 32 425 C32.5259375 426.07894531 33.051875 427.15789062 33.59375 428.26953125 C37.33446868 435.57243431 41.63918779 441.80805411 47 448 C47.60328125 448.74765625 48.2065625 449.4953125 48.828125 450.265625 C64.85065673 469.51959169 88.55239001 479.94416238 113 483 C122.41056219 483.69014777 131.85694231 483.5384507 141.28637695 483.50170898 C144.08269822 483.50329218 146.87899662 483.51085568 149.67530823 483.51808167 C156.43281663 483.53189875 163.19013613 483.52454537 169.94763527 483.50940608 C177.83779933 483.49241202 185.72791809 483.49577277 193.61809482 483.49950016 C207.70450014 483.5053571 221.79081562 483.49129014 235.87719727 483.46655273 C249.50971845 483.44261549 263.14211977 483.43556017 276.7746582 483.44604492 C291.66934212 483.45748008 306.56397083 483.45935394 321.45865411 483.44494683 C323.04962201 483.44342118 324.64058993 483.44190083 326.23155785 483.44038582 C327.4053455 483.4392491 327.4053455 483.4392491 328.60284603 483.43808941 C334.08834592 483.43336842 339.57382096 483.43518225 345.05932045 483.43945122 C351.75036098 483.44440134 358.44128872 483.43828908 365.13230357 483.41855692 C368.53886827 483.40875462 371.94512075 483.40513603 375.35171509 483.41144943 C394.87821866 483.48982683 394.87821866 483.48982683 414 480 C415.7788784 479.51871218 415.7788784 479.51871218 417.59369373 479.02770138 C438.30736718 473.21863429 456.18500341 460.13633265 469 443 C469.60328125 442.23429687 470.2065625 441.46859375 470.828125 440.6796875 C479.63939929 428.9710122 484.98739419 415.24605122 488 401 C488.26454546 399.75956137 488.26454546 399.75956137 488.53443527 398.49406338 C489.18688141 393.59745495 489.14449876 388.76016273 489.14044189 383.82545471 C489.14341302 382.69568409 489.14638414 381.56591348 489.1494453 380.40190738 C489.1581213 376.61371526 489.15963964 372.82555479 489.16113281 369.03735352 C489.16522526 366.32192296 489.17076627 363.60649571 489.17617798 360.8910675 C489.18974209 353.51048738 489.19578347 346.12991269 489.20018864 338.74932218 C489.2029552 334.13561911 489.20719339 329.52191813 489.21169281 324.90821648 C489.22388464 312.12024473 489.23418304 299.33227465 489.2375679 286.54429722 C489.23778747 285.72628545 489.23800703 284.90827368 489.23823325 284.06547367 C489.23845153 283.24555862 489.23866981 282.42564357 489.2388947 281.58088261 C489.23933816 279.91956301 489.23978472 278.25824342 489.24023438 276.59692383 C489.2404558 275.77286059 489.24067723 274.94879735 489.24090537 274.09976249 C489.24484876 260.7633415 489.26228912 247.42697531 489.2855939 234.09057546 C489.30935812 220.37987045 489.32177211 206.66919287 489.32293582 192.95846695 C489.32384991 185.26795621 489.32953467 177.57751682 489.34775543 169.88702583 C489.36322526 163.33473754 489.36823672 156.78254262 489.36001733 150.23023952 C489.3561345 146.89261278 489.35858526 143.55532513 489.37107468 140.21769714 C489.47351768 111.12200219 484.28258832 85.08262785 464 63 C463.55672363 62.50902832 463.11344727 62.01805664 462.65673828 61.51220703 C455.29777856 53.4360497 447.46530875 47.42418378 438 42 C436.55367188 41.15308594 436.55367188 41.15308594 435.078125 40.2890625 C421.26167711 32.77016683 405.85387177 29.84739703 390.28723145 29.85955811 C389.09958553 29.85658698 387.91193961 29.85361586 386.68830442 29.8505547 C383.39962117 29.84339034 380.1109698 29.84069662 376.82227993 29.83995724 C373.27197628 29.83810197 369.72168385 29.83055215 366.17138672 29.82382202 C358.41072049 29.81025607 350.65005943 29.80421639 342.88938332 29.79981136 C338.03916439 29.7970454 333.18894744 29.79280734 328.33872986 29.78830719 C314.89794286 29.77611565 301.45715745 29.76581685 288.01636505 29.7624321 C287.15655516 29.76221253 286.29674527 29.76199297 285.41088054 29.76176675 C284.54906075 29.76154847 283.68724097 29.76133019 282.79930544 29.7611053 C281.05305258 29.76066184 279.30679973 29.76021528 277.56054688 29.75976562 C276.69435272 29.7595442 275.82815856 29.75932277 274.93571609 29.75909463 C260.91316899 29.75515008 246.89067396 29.73770603 232.86814696 29.7144061 C218.45570918 29.69065259 204.04329748 29.67822839 189.63083982 29.67706418 C181.54521059 29.67614954 173.45964918 29.67045089 165.3740387 29.65224457 C158.48612125 29.63678934 151.59829257 29.63175484 144.71036106 29.63998267 C141.20075625 29.6438704 137.69132991 29.64305249 134.18174744 29.62892532 C114.86438904 29.36795673 114.86438904 29.36795673 96 33 Z " fill="#000000" transform="translate(0,0)"/>
<path d="M0 0 C1.85940788 0.04261765 3.71971272 0.04162839 5.57958984 0.03320312 C17.54260311 0.33340421 32.2355858 5.81642046 41.13037109 14.04882812 C41.46037109 15.03882812 41.79037109 16.02882813 42.13037109 17.04882812 C42.85224609 17.29632813 43.57412109 17.54382813 44.31787109 17.79882812 C48.38840283 19.60795334 50.45622659 22.56819559 53.13037109 26.04882812 C53.57638672 26.62117188 54.02240234 27.19351563 54.48193359 27.78320312 C58.91476435 33.71177432 62.12896121 39.81906795 63.69287109 47.08007812 C64.10414129 48.93079403 64.67521993 50.7439134 65.25537109 52.54882812 C67.98146459 63.69309834 67.37102822 80.563341 61.64990234 90.66210938 C61.14845703 91.44972656 60.64701172 92.23734375 60.13037109 93.04882812 C59.84162109 93.84675781 59.55287109 94.6446875 59.25537109 95.46679688 C57.76043017 98.89789393 55.54406341 101.54646007 53.13037109 104.36132812 C52.64487793 104.93310791 52.15938477 105.5048877 51.65917969 106.09399414 C47.91472659 110.39288863 43.85012928 113.90694696 39.29443359 117.34179688 C34.49151499 121.13038069 30.55758096 125.73008204 29.75927734 131.93164062 C29.5698203 141.18160193 31.07454119 147.30247532 37.12646484 154.38476562 C54.30708034 171.36257453 80.66226321 176.31613364 103.90087891 176.36791992 C111.0328102 176.27552195 116.74268058 175.36096394 123.13037109 172.04882812 C124.01982422 171.65179688 124.90927734 171.25476563 125.82568359 170.84570312 C130.80423507 168.55237621 134.48736175 166.24380858 138.13037109 162.04882812 C138.70787109 161.53320312 139.28537109 161.01757812 139.88037109 160.48632812 C143.02260507 156.87275906 142.2483904 151.8172458 142.19287109 147.29882812 C142.18610352 146.25275391 142.18610352 146.25275391 142.17919922 145.18554688 C142.1674713 143.4732701 142.14953762 141.76103779 142.13037109 140.04882812 C145.62171816 142.88278548 147.01386838 144.30765623 147.72412109 148.82617188 C147.71885211 150.21323269 147.68699156 151.60041342 147.63037109 152.98632812 C147.63294922 153.67662109 147.63552734 154.36691406 147.63818359 155.078125 C147.46524172 164.20080895 142.37892913 169.95817588 136.13037109 176.04882812 C130.55464416 180.55492581 123.94672464 183.01899072 117.13037109 185.04882812 C116.52966797 185.22905518 115.92896484 185.40928223 115.31005859 185.5949707 C108.60454872 187.35862674 101.93343788 187.38701068 95.03076172 187.36450195 C93.03005526 187.36136681 91.0293667 187.38559144 89.02880859 187.41015625 C63.66118742 187.42264032 38.8115352 177.7471123 16.49633789 166.26708984 C2.48180139 159.07773543 -11.96913988 152.19961446 -26.86962891 147.04882812 C-28.3875 146.4996875 -28.3875 146.4996875 -29.93603516 145.93945312 C-50.80584846 138.87188445 -76.36687 138.03354823 -96.51416016 147.29101562 C-111.57903233 155.18297427 -121.92544862 167.19205173 -127.86962891 183.04882812 C-128.60772698 186.35710291 -128.60772698 186.35710291 -128.86962891 189.04882812 C-129.52962891 189.04882812 -130.18962891 189.04882812 -130.86962891 189.04882812 C-136.36982054 147.94471746 -129.66640029 107.66177865 -109.86962891 71.04882812 C-109.30501953 69.99179688 -108.74041016 68.93476563 -108.15869141 67.84570312 C-101.60262709 56.08787885 -93.08127278 45.81776006 -83.86962891 36.04882812 C-83.18642578 35.30117187 -82.50322266 34.55351563 -81.79931641 33.78320312 C-60.48628721 11.29048596 -30.71955982 -0.81306839 0 0 Z " fill="#58B0FC" transform="translate(247.86962890625,84.951171875)"/>
<path d="M0 0 C1.73636719 0.56654297 1.73636719 0.56654297 3.5078125 1.14453125 C21.27128646 7.6057509 37.36861574 18.41392325 53.08398438 28.74316406 C69.71114803 39.64997325 87.33185974 47.88543308 106.75195312 52.46484375 C108.25731458 52.82320087 109.75876194 53.1983949 111.25585938 53.58984375 C132.45261891 59.11943319 155.33937378 59.74500772 176 52 C177.1144751 51.58548584 177.1144751 51.58548584 178.25146484 51.16259766 C180.16989847 50.44775525 182.08525692 49.72466969 184 49 C184 49.66 184 50.32 184 51 C167.32943747 64.09138953 147.54374613 64.68973976 127.21679688 62.73193359 C112.48554383 60.68335061 97.92998591 55.08556155 84.734375 48.359375 C76.27740275 44.0528512 67.22927854 41.1985218 57.875 44.125 C53.67645653 45.88936846 51.35523373 48.02554307 49 52 C48.32089694 55.15615932 48.25235716 57.85294524 49 61 C51.27127334 64.02409364 51.27127334 64.02409364 54 66 C54.33 66.33 54.66 66.66 55 67 C61.63360622 67.8683476 65.47972814 66.57194061 71 63 C76.82391268 61.08712491 84.16693887 60.94168517 89.875 63.25 C98.18622723 67.90428725 102.1790267 74.15945605 105.421875 82.9453125 C109.79252204 98.47882832 106.61141234 113.72878974 99.0703125 127.6328125 C93.24366866 137.10935399 84.92720871 143.25056131 75 148 C73.66195312 148.65162109 73.66195312 148.65162109 72.296875 149.31640625 C55.76467905 155.79829182 34.13559047 153.76538864 18 147 C17.28134766 146.70528809 16.56269531 146.41057617 15.82226562 146.10693359 C6.37269071 142.15316237 -2.04522564 137.51897811 -10 131 C-10.52577637 130.57283691 -11.05155273 130.14567383 -11.59326172 129.70556641 C-38.01797619 108.15360299 -55.87926429 80.20426494 -67 48 C-67.39445312 46.86949219 -67.78890625 45.73898437 -68.1953125 44.57421875 C-74.48824497 25.03439902 -74.48824497 25.03439902 -72.02734375 18.36328125 C-70.52497645 16.00356301 -68.91013182 14.04073912 -67 12 C-66.21882813 11.06414062 -66.21882813 11.06414062 -65.421875 10.109375 C-49.22921237 -7.96981143 -21.24009401 -7.11745222 0 0 Z " fill="#4BA5FA" transform="translate(193,267)"/>
<path d="M0 0 C7.67214532 5.16394397 15.08958992 13.73936808 17 23 C18.57186556 32.7508948 19.36898713 45.55980678 13.9921875 54.2421875 C13.00605469 55.60730469 13.00605469 55.60730469 12 57 C11.608125 58.051875 11.21625 59.10375 10.8125 60.1875 C7.287094 68.65593557 0.28546141 75.14340581 -6.8125 80.6875 C-7.63886963 81.33875854 -7.63886963 81.33875854 -8.48193359 82.00317383 C-11.69340092 84.4036893 -12.84578702 85 -17 85 C-17 85.66 -17 86.32 -17 87 C-23.01233716 89.93742044 -29.10559885 92.52000683 -35.4375 94.6875 C-36.59121094 95.08324219 -37.74492187 95.47898437 -38.93359375 95.88671875 C-72.09547582 105.71816097 -107.43669804 95.63049826 -137 80 C-141.48006667 77.51415486 -145.84171564 74.84531059 -150.18505859 72.12939453 C-153.28988955 70.19733265 -156.42613092 68.31778619 -159.5625 66.4375 C-160.49388794 65.87893311 -160.49388794 65.87893311 -161.4440918 65.30908203 C-190.04680219 48.19903262 -219.85287738 32.20837353 -254.37109375 38.69140625 C-261.6500896 40.5968608 -267.83903687 43.72124941 -274 48 C-274.71542969 48.49371094 -275.43085938 48.98742187 -276.16796875 49.49609375 C-277.79438135 50.64204913 -279.40002661 51.81741097 -281 53 C-276.91114927 41.07241988 -264.57256553 32.55810502 -253.6875 27.1875 C-228.25454483 16.62907822 -200.69790516 21.88984841 -176.0625 31.8671875 C-164.42938263 36.71285535 -153.28848705 42.33271565 -142.18212891 48.27319336 C-134.59930594 52.29160754 -126.82187583 55.80212592 -118.93237305 59.17163086 C-117.08494774 59.96358463 -115.2472632 60.77814648 -113.41015625 61.59375 C-105.45316693 64.87498271 -96.96487546 67.00973429 -88.49975586 68.52880859 C-86.9315904 68.8243999 -85.36817494 69.1480046 -83.81445312 69.51196289 C-76.7744788 71.12516488 -69.95381361 71.34685921 -62.75 71.3125 C-61.55431396 71.30831055 -60.35862793 71.30412109 -59.12670898 71.29980469 C-50.67171632 71.19151811 -43.11175926 70.50510213 -35 68 C-33.97390625 67.73316406 -32.9478125 67.46632813 -31.890625 67.19140625 C-20.5081626 63.94133767 -10.74508581 56.76053593 -4 47 C0.06841169 39.45096415 1.26587999 31.47407269 0 23 C-1.0918605 20.12111523 -2.34489205 17.57575266 -3.90625 14.92578125 C-5 13 -5 13 -5 11 C-5.8353125 10.5978125 -5.8353125 10.5978125 -6.6875 10.1875 C-9 9 -9 9 -11.125 7.625 C-22.52767668 1.18000883 -33.80970693 0.07771452 -46.5 3.5 C-48.00694061 3.97867525 -49.51040495 4.46980515 -51 5 C-48.68250084 2.41914866 -46.3495637 0.97284289 -43.25 -0.5625 C-42.43015625 -0.97628906 -41.6103125 -1.39007813 -40.765625 -1.81640625 C-27.88471817 -7.32899773 -12.14834296 -7.20494805 0 0 Z " fill="#77C3FE" transform="translate(408,216)"/>
<path d="M0 0 C8.39520963 3.45960178 16.7643284 6.19704035 25.57861328 8.37011719 C27.10341996 8.74686083 28.62534825 9.13546147 30.14404297 9.53613281 C51.33567313 15.05888224 74.22169675 15.67976257 94.875 7.9375 C95.9894751 7.52298584 95.9894751 7.52298584 97.12646484 7.10009766 C99.04489847 6.38525525 100.96025692 5.66216969 102.875 4.9375 C102.875 5.5975 102.875 6.2575 102.875 6.9375 C86.20443747 20.02888953 66.41874613 20.62723976 46.09179688 18.66943359 C31.37435684 16.6227715 16.80864277 11.04175753 3.63671875 4.296875 C0.05963226 2.47283021 -3.33076328 1.07968587 -7.25 0.125 C-8.18070312 -0.10832031 -9.11140625 -0.34164063 -10.0703125 -0.58203125 C-10.74835938 -0.74058594 -11.42640625 -0.89914062 -12.125 -1.0625 C-7.96345029 -4.3852033 -4.29422115 -1.88152641 0 0 Z " fill="#71C0FE" transform="translate(274.125,311.0625)"/>
<path d="M0 0 C0.66 0.33 1.32 0.66 2 1 C1.2059375 1.68707031 0.411875 2.37414062 -0.40625 3.08203125 C-1.43788765 3.99174809 -2.4691166 4.90192854 -3.5 5.8125 C-4.02464844 6.26431641 -4.54929688 6.71613281 -5.08984375 7.18164062 C-6.45095423 8.39249865 -7.73153413 9.69240937 -9 11 C-9 11.99 -9 12.98 -9 14 C-10.96875 15.82421875 -10.96875 15.82421875 -13.5 17.6875 C-14.3353125 18.31011719 -15.170625 18.93273437 -16.03125 19.57421875 C-17.00578125 20.27998047 -17.00578125 20.27998047 -18 21 C-18 16.23329183 -15.05285303 13.49340703 -12 10 C-8.22390291 6.33307578 -4.38239433 2.92159622 0 0 Z " fill="#4C98F4" transform="translate(146,248)"/>
<path d="M0 0 C0.33 0.66 0.66 1.32 1 2 C-0.72271227 3.15551453 -2.45346917 4.29904119 -4.1875 5.4375 C-5.15042969 6.07558594 -6.11335938 6.71367187 -7.10546875 7.37109375 C-9.84977757 8.91546187 -11.90418343 9.59816641 -15 10 C-15.66 8.68 -16.32 7.36 -17 6 C-16.10796875 5.73445313 -15.2159375 5.46890625 -14.296875 5.1953125 C-13.12640625 4.84210938 -11.9559375 4.48890625 -10.75 4.125 C-9.58984375 3.77695312 -8.4296875 3.42890625 -7.234375 3.0703125 C-4.64872928 2.21467611 -2.37713126 1.3062454 0 0 Z " fill="#88CCFD" transform="translate(376,316)"/>
<path d="M0 0 C4.62 0.99 9.24 1.98 14 3 C14.33 4.32 14.66 5.64 15 7 C3.29384966 5.25740319 3.29384966 5.25740319 -1 2 C-0.67 1.34 -0.34 0.68 0 0 Z " fill="#67BAFE" transform="translate(292,318)"/>
<path d="M0 0 C5 5 5 5 5 9 C4.34 9 3.68 9 3 9 C2.87625 10.134375 2.7525 11.26875 2.625 12.4375 C2.41875 13.613125 2.2125 14.78875 2 16 C1.34 16.33 0.68 16.66 0 17 C0 11.39 0 5.78 0 0 Z " fill="#93D2FE" transform="translate(390,225)"/>
<path d="M0 0 C0.66 0 1.32 0 2 0 C0.34908222 4.29238623 -2.73754566 6.8793915 -6 10 C-6.66 9.67 -7.32 9.34 -8 9 C-6.71520959 7.49410612 -5.42195918 5.99542625 -4.125 4.5 C-3.04605469 3.24703125 -3.04605469 3.24703125 -1.9453125 1.96875 C-1.30335938 1.3190625 -0.66140625 0.669375 0 0 Z M-11 11 C-10.34 11.33 -9.68 11.66 -9 12 C-9.99 12 -10.98 12 -12 12 C-11.67 11.67 -11.34 11.34 -11 11 Z " fill="#A1DAFE" transform="translate(403,264)"/>
<path d="M0 0 C0.66 1.32 1.32 2.64 2 4 C-0.64 5.98 -3.28 7.96 -6 10 C-4.6302836 6.00499382 -2.74277578 3.19990508 0 0 Z " fill="#5DA1F3" transform="translate(133,259)"/>
<path d="M0 0 C1.46179688 0.59167969 1.46179688 0.59167969 2.953125 1.1953125 C3.93796875 1.58460938 4.9228125 1.97390625 5.9375 2.375 C7.05898438 2.84292969 7.05898438 2.84292969 8.203125 3.3203125 C7.543125 3.9803125 6.883125 4.6403125 6.203125 5.3203125 C1.913125 4.0003125 -2.376875 2.6803125 -6.796875 1.3203125 C-2.796875 -0.6796875 -2.796875 -0.6796875 0 0 Z " fill="#81BDFA" transform="translate(268.796875,308.6796875)"/>
<path d="M0 0 C2.97 0.495 2.97 0.495 6 1 C6 2.32 6 3.64 6 5 C4.02 4.34 2.04 3.68 0 3 C0 2.01 0 1.02 0 0 Z " fill="#79C0FD" transform="translate(286,316)"/>
</svg>
